<?xml version="1.0" encoding="UTF-8"?>
<svg version="1.1" xmlns="http://www.w3.org/2000/svg" width="225" height="225">
<path d="M0 0 C74.25 0 148.5 0 225 0 C225 74.25 225 148.5 225 225 C150.75 225 76.5 225 0 225 C0 150.75 0 76.5 0 0 Z " fill="#FEFEFE" transform="translate(0,0)"/>
<path d="M0 0 C6.59606151 0.72556677 12.85793565 2.44328071 19.25 4.1875 C20.4160376 4.50356201 21.5820752 4.81962402 22.78344727 5.14526367 C29.21301973 6.90626319 35.59731875 8.75368492 41.9375 10.8125 C50.91921501 13.72896775 59.98287662 16.34633306 69.0625 18.9375 C69.82110321 19.15407257 70.57970642 19.37064514 71.36129761 19.59378052 C81.21758887 22.40266047 91.09371439 25.1220298 101 27.75 C108.93624454 29.855843 116.78141855 32.12166629 124.59057617 34.65673828 C135.15028554 38.06135172 145.85013718 41.0010663 156.52587891 44.01660156 C162.35385445 45.66629134 168.17683833 47.33340705 174 49 C174.57202148 50.89526367 174.57202148 50.89526367 175 53 C173.84765625 54.67578125 173.84765625 54.67578125 172.0625 56.3125 C171.49660156 56.84488281 170.93070313 57.37726563 170.34765625 57.92578125 C168.99868503 59.11763436 167.6446885 60.303963 166.27685547 61.47412109 C160.92762659 66.07756317 155.94641736 70.96917279 151 76 C142.57808043 84.56563834 142.57808043 84.56563834 138.03125 88.46875 C133.26833486 92.56202757 128.90285874 97.02646937 124.5 101.5 C119.48072491 106.59984131 114.43954375 111.55183483 109.00976562 116.21289062 C105.1669081 119.63000884 101.60391313 123.33458665 98 127 C93.15359596 131.92910718 88.27002381 136.68972211 83.02734375 141.1953125 C79.18001943 144.62009831 75.60985315 148.32854526 72 152 C67.07083435 157.0132811 62.10294047 161.86455205 56.76806641 166.44580078 C53.64033555 169.195198 50.83524658 172.25077398 47.98046875 175.27734375 C46 177 46 177 43 177 C38.64736744 162.88048463 35.18298101 148.58585311 31.81243896 134.20880127 C28.14584782 118.5895234 24.24536682 103.03821793 20.25 87.5 C16.69866447 73.67975312 13.1561398 59.87242058 10.04736328 45.94458008 C8.74058985 40.11416761 7.3408621 34.3145001 5.87109375 28.5234375 C5.68542343 27.7904393 5.49975311 27.0574411 5.30845642 26.30223083 C4.39345999 22.69572716 3.47091562 19.09136985 2.5378418 15.48950195 C2.20474222 14.18445173 1.87180767 12.87935938 1.5390625 11.57421875 C1.24209473 10.42526123 0.94512695 9.27630371 0.63916016 8.0925293 C0.05824382 5.28180842 -0.13151958 2.85637825 0 0 Z " fill="#0B0B0B" transform="translate(27,28)"/>
<path d="M0 0 C7.97211542 1.64820667 15.74543782 3.86185054 23.5625 6.125 C24.87037131 6.50155018 26.17831354 6.8778541 27.48632812 7.25390625 C30.65825575 8.16685959 33.82944769 9.08228406 37 10 C35.61630199 13.21162673 34.09303265 15.01605599 31.3984375 17.22265625 C26.09159662 21.71296784 21.31139417 26.67066027 16.47265625 31.65429688 C15.79332031 32.34458984 15.11398438 33.03488281 14.4140625 33.74609375 C13.8051416 34.37185303 13.1962207 34.9976123 12.56884766 35.64233398 C11 37 11 37 9 37 C7.71519002 32.05287412 6.43352133 27.10494933 5.15478516 22.15625 C4.71912983 20.47210593 4.28260974 18.78818531 3.84521484 17.10449219 C3.21746159 14.68742865 2.59280029 12.26958435 1.96875 9.8515625 C1.77188599 9.0963028 1.57502197 8.34104309 1.37219238 7.56289673 C0 2.22774341 0 2.22774341 0 0 Z " fill="#FAFAFA" transform="translate(63,162)"/>
<path d="M0 0 C4.455 18.315 4.455 18.315 9 37 C1.17308728 35.43461746 -6.33895703 33.64652904 -14 31.5 C-15.69576172 31.03787109 -15.69576172 31.03787109 -17.42578125 30.56640625 C-18.50214844 30.26605469 -19.57851563 29.96570313 -20.6875 29.65625 C-22.14736328 29.25116211 -22.14736328 29.25116211 -23.63671875 28.83789062 C-26 28 -26 28 -28 26 C-25.00428676 22.97489042 -22.00265195 19.95572125 -19 16.9375 C-18.16082031 16.08994141 -17.32164063 15.24238281 -16.45703125 14.36914062 C-2.14336993 0 -2.14336993 0 0 0 Z " fill="#F8F8F8" transform="translate(82,89)"/>
<path d="M0 0 C0.66 0.33 1.32 0.66 2 1 C2.74727522 3.33442859 3.37388928 5.61377946 3.9453125 7.9921875 C4.12005096 8.69393097 4.29478943 9.39567444 4.474823 10.11868286 C4.84337515 11.60567279 5.20794013 13.0936557 5.56884766 14.58251953 C6.12153514 16.86071771 6.68661169 19.13555644 7.25390625 21.41015625 C7.61011122 22.85398523 7.96560355 24.29799026 8.3203125 25.7421875 C8.57338669 26.76419754 8.57338669 26.76419754 8.83157349 27.80685425 C9.51044089 30.62110947 10 33.09212796 10 36 C5.24691919 35.40553464 0.78981032 34.48736429 -3.80859375 33.15234375 C-5.04931641 32.79462891 -6.29003906 32.43691406 -7.56835938 32.06835938 C-8.85810283 31.69150862 -10.14781601 31.31455423 -11.4375 30.9375 C-12.75443273 30.55621014 -14.07148906 30.1753469 -15.38867188 29.79492188 C-18.59368667 28.86746338 -21.79738335 27.93569947 -25 27 C-25 24 -25 24 -23.35107422 21.99462891 C-22.21436279 20.87193604 -22.21436279 20.87193604 -21.0546875 19.7265625 C-20.22453125 18.9015625 -19.394375 18.0765625 -18.5390625 17.2265625 C-17.65992187 16.36804688 -16.78078125 15.50953125 -15.875 14.625 C-15.0190625 13.77421875 -14.163125 12.9234375 -13.28125 12.046875 C-9.00351776 7.82179178 -4.70331959 3.74723495 0 0 Z " fill="#F8F8F8" transform="translate(123,102)"/>
<path d="M0 0 C7.6448241 1.37521417 15.04895048 3.31764603 22.5 5.5 C23.5828125 5.80808594 24.665625 6.11617188 25.78125 6.43359375 C26.8125 6.73394531 27.84375 7.03429687 28.90625 7.34375 C29.83759766 7.61380859 30.76894531 7.88386719 31.72851562 8.16210938 C34 9 34 9 36 11 C32.8041491 14.24538125 29.60171438 17.48406718 26.39306641 20.71679688 C25.30302549 21.81687978 24.21478836 22.91875311 23.12841797 24.02246094 C21.5643116 25.61089467 19.99377792 27.1927234 18.421875 28.7734375 C17.93942322 29.26621185 17.45697144 29.75898621 16.9598999 30.26669312 C14.48358376 32.74382216 12.26465717 34.67667189 9 36 C5.4505322 24.08060815 2.14680987 12.25941423 0 0 Z " fill="#FAFAFA" transform="translate(42,76)"/>
<path d="M0 0 C7.6448241 1.37521417 15.04895048 3.31764603 22.5 5.5 C23.5828125 5.80808594 24.665625 6.11617188 25.78125 6.43359375 C26.8125 6.73394531 27.84375 7.03429687 28.90625 7.34375 C29.83759766 7.61380859 30.76894531 7.88386719 31.72851562 8.16210938 C34 9 34 9 36 11 C32.8209344 14.23756221 29.63028882 17.46347495 26.4375 20.6875 C25.54224609 21.59951172 24.64699219 22.51152344 23.72460938 23.45117188 C19.06484338 28.14507535 14.54703426 32.38567726 9 36 C6.35035907 28.02147229 4.19484579 19.98755145 2.25 11.8125 C2.02739502 10.87962158 1.80479004 9.94674316 1.57543945 8.9855957 C0 2.26788232 0 2.26788232 0 0 Z " fill="#F9F9F9" transform="translate(160,70)"/>
<path d="M0 0 C0.56283691 0.16081055 1.12567383 0.32162109 1.70556641 0.48730469 C2.89158447 0.82616699 2.89158447 0.82616699 4.1015625 1.171875 C19.55078125 5.5859375 19.55078125 5.5859375 35 10 C35 13 35 13 32.4375 15.890625 C31.30000562 17.01888647 30.15362157 18.13823354 29 19.25 C28.10958008 20.12289673 28.10958008 20.12289673 27.20117188 21.01342773 C21.38694371 26.67660617 15.3483419 31.94524146 9 37 C7.5527241 31.82183663 6.11212195 26.64189698 4.68017578 21.45947266 C4.24498783 19.88586052 3.80858103 18.31258464 3.37060547 16.73974609 C2.80441912 14.70287324 2.24499364 12.66426654 1.6875 10.625 C1.36136719 9.44164063 1.03523437 8.25828125 0.69921875 7.0390625 C0 4 0 4 0 0 Z " fill="#FAFAFA" transform="translate(128,100)"/>
<path d="M0 0 C0.99 0.33 1.98 0.66 3 1 C3.96728516 3.46508789 3.96728516 3.46508789 4.7890625 6.72265625 C5.09070313 7.90150391 5.39234375 9.08035156 5.703125 10.29492188 C6.00734375 11.53822266 6.3115625 12.78152344 6.625 14.0625 C6.93695313 15.27873047 7.24890625 16.49496094 7.5703125 17.74804688 C9.1003641 23.82538543 10.42322854 29.75683869 11 36 C6.85294071 34.90040436 2.7075908 33.79449093 -1.4375 32.6875 C-3.18450195 32.2244043 -3.18450195 32.2244043 -4.96679688 31.75195312 C-11.39302395 30.03225856 -17.71606297 28.18425619 -24 26 C-22.4152642 22.13671373 -19.94043113 19.71123077 -16.9921875 16.796875 C-16.50670441 16.3142218 -16.02122131 15.8315686 -15.52102661 15.33428955 C-13.97700134 13.80141438 -12.42615176 12.27565996 -10.875 10.75 C-9.82375991 9.70879639 -8.77297343 8.66713459 -7.72265625 7.625 C-5.15366996 5.07800536 -2.57851839 2.53734823 0 0 Z " fill="#F7F7F7" transform="translate(90,133)"/>
<path d="M0 0 C0.98107462 4.16201893 1.95958457 8.32463021 2.93579102 12.48779297 C3.26778018 13.90201836 3.60045211 15.31608366 3.93383789 16.72998047 C4.41475012 18.77008348 4.89315001 20.81076227 5.37109375 22.8515625 C5.8031311 24.68968506 5.8031311 24.68968506 6.24389648 26.56494141 C6.93418678 29.70100356 7.50528764 32.82789585 8 36 C-4.14411346 33.11662111 -16.0705316 29.6668448 -28 26 C-22.0507514 18.9825632 -15.84440865 12.64137215 -8.859375 6.64453125 C-7.19983315 5.17674318 -5.65641767 3.66148021 -4.125 2.0625 C-2 0 -2 0 0 0 Z " fill="#F7F7F7" transform="translate(157,71)"/>
<path d="M0 0 C12.14411346 2.88337889 24.0705316 6.3331552 36 10 C35.2783667 10.72018311 34.5567334 11.44036621 33.81323242 12.18237305 C31.19431123 14.80538524 28.58947682 17.44145762 25.98828125 20.08203125 C24.579322 21.50477487 23.17034802 22.92750427 21.76049805 24.34936523 C20.78803116 25.33199785 19.81735068 26.31640133 18.84838867 27.30249023 C17.44137874 28.7336325 16.02743802 30.15795058 14.61328125 31.58203125 C13.77579346 32.42999268 12.93830566 33.2779541 12.07543945 34.15161133 C10 36 10 36 8 36 C7.75765625 35.030625 7.5153125 34.06125 7.265625 33.0625 C7.10545898 32.4221582 6.94529297 31.78181641 6.78027344 31.12207031 C6.42354224 29.69448858 6.06743331 28.26675122 5.71191406 26.83886719 C4.77024581 23.06060952 3.81854192 19.28548354 2.84375 15.515625 C2.66038086 14.80019531 2.47701172 14.08476563 2.28808594 13.34765625 C1.93578912 11.97427408 1.57980845 10.60183036 1.21972656 9.23046875 C0.39426136 5.99504376 0 3.37485062 0 0 Z " fill="#FAFAFA" transform="translate(32,33)"/>
<path d="M0 0 C2.57552932 2.57552932 2.83959363 4.58272613 3.7265625 8.109375 C4.190625 9.95402344 4.190625 9.95402344 4.6640625 11.8359375 C4.82165039 12.47885742 4.97923828 13.12177734 5.14160156 13.78417969 C5.62035927 15.73112769 6.11479593 17.67419831 6.609375 19.6171875 C6.91617188 20.85210937 7.22296875 22.08703125 7.5390625 23.359375 C7.95986084 25.05271973 7.95986084 25.05271973 8.38916016 26.78027344 C8.98842845 29.93900656 9.11324296 32.7940736 9 36 C1.15025111 34.58993195 -6.46110188 32.56723132 -14.125 30.375 C-15.27226563 30.05015625 -16.41953125 29.7253125 -17.6015625 29.390625 C-20.40202967 28.5971593 -23.20145776 27.80022316 -26 27 C-22.42701874 19.43583851 -15.19049546 14.07523406 -8.9296875 8.70703125 C-5.81053864 5.94778419 -2.90248778 2.98412025 0 0 Z " fill="#F7F7F7" transform="translate(70,46)"/>
<path d="M0 0 C1.86458427 3.34747476 2.79565622 6.66622696 3.7265625 10.375 C4.190625 12.22351563 4.190625 12.22351563 4.6640625 14.109375 C4.82165039 14.74810547 4.97923828 15.38683594 5.14160156 16.04492188 C5.62384241 17.99531818 6.11608113 19.9429986 6.609375 21.890625 C6.91617188 23.12296875 7.22296875 24.3553125 7.5390625 25.625 C7.95986084 27.31496094 7.95986084 27.31496094 8.38916016 29.0390625 C9 32 9 32 9 36 C1.35092616 35.39763544 -5.68599105 33.17340876 -13 30.9375 C-14.25167969 30.56044922 -15.50335938 30.18339844 -16.79296875 29.79492188 C-19.86375888 28.86899661 -22.93264001 27.9372135 -26 27 C-22.27279036 19.04380068 -14.41233487 13.23951826 -7.828125 7.60546875 C-5.0846069 5.19609709 -2.54914918 2.61287791 0 0 Z " fill="#F7F7F7" transform="translate(113,58)"/>
<path d="M0 0 C8.07397036 2.18870857 16.13324798 4.42740233 24.1875 6.6875 C25.90163086 7.16799805 25.90163086 7.16799805 27.65039062 7.65820312 C30.43369025 8.43845867 33.21689145 9.21906326 36 10 C34.89532906 13.31401282 34.12247362 13.97245504 31.5 16.12890625 C26.74821545 20.16049845 22.37947939 24.50868506 18 28.9375 C17.22527344 29.71673828 16.45054687 30.49597656 15.65234375 31.29882812 C13.76589243 33.1969242 11.88183755 35.09733149 10 37 C7.61855198 34.61855198 7.36240849 33.18425562 6.5625 29.94140625 C6.30726562 28.91466797 6.05203125 27.88792969 5.7890625 26.83007812 C5.52867188 25.75177734 5.26828125 24.67347656 5 23.5625 C4.73960938 22.51900391 4.47921875 21.47550781 4.2109375 20.40039062 C2.54888773 13.63886996 1.16024973 6.8650953 0 0 Z " fill="#F8F8F8" transform="translate(117,57)"/>
<path d="M0 0 C12.21539997 2.52732413 24.1026405 6.28454554 36 10 C31.92032987 15.09958766 27.39122528 19.49079676 22.55273438 23.85595703 C18.22456406 27.76566532 14.07048727 31.82176453 10 36 C9.34 35.67 8.68 35.34 8 35 C7.25272478 32.66557141 6.62611072 30.38622054 6.0546875 28.0078125 C5.7925798 26.9551973 5.7925798 26.9551973 5.525177 25.88131714 C5.15662485 24.39432721 4.79205987 22.9063443 4.43115234 21.41748047 C3.87846486 19.13928229 3.31338831 16.86444356 2.74609375 14.58984375 C2.38988878 13.14601477 2.03439645 11.70200974 1.6796875 10.2578125 C1.51097137 9.57647247 1.34225525 8.89513245 1.16842651 8.19314575 C0.48955911 5.37889053 0 2.90787204 0 0 Z " fill="#F8F8F8" transform="translate(96,132)"/>
<path d="M0 0 C11.78107126 3.00929538 23.4323382 6.25048204 35 10 C33.89200601 13.32398196 33.09430246 13.99525442 30.4609375 16.16015625 C25.13651648 20.6755789 20.33209363 25.64934096 15.47265625 30.65429688 C14.79332031 31.34458984 14.11398438 32.03488281 13.4140625 32.74609375 C12.8051416 33.37185303 12.1962207 33.9976123 11.56884766 34.64233398 C10 36 10 36 8 36 C6.85461673 31.51746944 5.71547027 27.03341723 4.58203125 22.54785156 C4.19571476 21.02267926 3.80770854 19.49793392 3.41796875 17.97363281 C2.85750851 15.78040319 2.30317706 13.58570134 1.75 11.390625 C1.57500977 10.7113092 1.40001953 10.03199341 1.21972656 9.33209229 C0.40386068 6.07016774 0 3.39503751 0 0 Z " fill="#F8F8F8" transform="translate(75,45)"/>
<path d="M0 0 C0.56283691 0.16081055 1.12567383 0.32162109 1.70556641 0.48730469 C2.89158447 0.82616699 2.89158447 0.82616699 4.1015625 1.171875 C19.55078125 5.5859375 19.55078125 5.5859375 35 10 C33.33444925 14.33254024 30.1256989 17.13556608 26.875 20.3125 C26.29113525 20.88919434 25.70727051 21.46588867 25.10571289 22.06005859 C19.66786607 27.39641097 14.10763248 32.44032694 8 37 C6.85478288 32.37496756 5.71562913 27.74849953 4.58203125 23.12060547 C4.19566852 21.54695526 3.80766154 19.97370778 3.41796875 18.40087891 C2.85763137 16.1380879 2.3032525 13.87390725 1.75 11.609375 C1.57500977 10.90818542 1.40001953 10.20699585 1.21972656 9.48455811 C0.41871198 6.18188393 0 3.42715045 0 0 Z " fill="#F9F9F9" transform="translate(53,119)"/>
<path d="M0 0 C7.82651576 1.60414023 15.41520176 3.82389909 23.0625 6.125 C24.30966797 6.49753906 25.55683594 6.87007813 26.84179688 7.25390625 C29.89538138 8.16647173 32.94807515 9.0819024 36 10 C31.87091889 14.91467493 27.59812069 19.58438963 23.0625 24.125 C22.48048828 24.71925781 21.89847656 25.31351563 21.29882812 25.92578125 C20.42581055 26.80169922 20.42581055 26.80169922 19.53515625 27.6953125 C19.023479 28.21109863 18.51180176 28.72688477 17.98461914 29.25830078 C15.15625945 31.74046563 12.08785446 33.85453942 9 36 C7.71511061 31.19533382 6.4334443 26.38982408 5.15478516 21.58349609 C4.71915216 19.94784201 4.28263224 18.31242388 3.84521484 16.67724609 C3.21740296 14.32971367 2.59276352 11.98135703 1.96875 9.6328125 C1.67345398 8.53273361 1.67345398 8.53273361 1.37219238 7.41043091 C0 2.22774341 0 2.22774341 0 0 Z " fill="#FAFAFA" transform="translate(85,88)"/>
</svg>
